<svg width="24" height="24" viewBox="0 0 24 24" fill="none" xmlns="http://www.w3.org/2000/svg">
<path d="M17.296 12.7959L9.79596 20.2959C9.58461 20.5072 9.29797 20.626 8.99908 20.626C8.7002 20.626 8.41355 20.5072 8.20221 20.2959C7.99086 20.0846 7.87213 19.7979 7.87213 19.499C7.87213 19.2001 7.99086 18.9135 8.20221 18.7021L14.9063 12L8.20408 5.2959C8.09944 5.19125 8.01642 5.06702 7.95979 4.93029C7.90316 4.79356 7.87401 4.64702 7.87401 4.49902C7.87401 4.35103 7.90316 4.20448 7.95979 4.06776C8.01642 3.93103 8.09944 3.80679 8.20408 3.70215C8.30873 3.5975 8.43296 3.51449 8.56969 3.45785C8.70642 3.40122 8.85296 3.37207 9.00096 3.37207C9.14895 3.37207 9.2955 3.40122 9.43222 3.45785C9.56895 3.51449 9.69319 3.5975 9.79783 3.70215L17.2978 11.2021C17.4026 11.3068 17.4857 11.4311 17.5423 11.5679C17.5989 11.7047 17.628 11.8513 17.6278 11.9994C17.6276 12.1475 17.5982 12.2941 17.5413 12.4307C17.4843 12.5674 17.401 12.6915 17.296 12.7959Z" fill="#263238"/>
</svg>
