<svg width="18" height="18" viewBox="0 0 18 18" fill="none" xmlns="http://www.w3.org/2000/svg">
<path d="M10.1597 9.59692L4.53467 15.2219C4.45618 15.3004 4.36301 15.3627 4.26046 15.4051C4.15791 15.4476 4.04801 15.4695 3.93701 15.4695C3.82602 15.4695 3.71611 15.4476 3.61356 15.4051C3.51102 15.3627 3.41784 15.3004 3.33935 15.2219C3.26087 15.1434 3.19861 15.0503 3.15614 14.9477C3.11366 14.8452 3.0918 14.7353 3.0918 14.6243C3.0918 14.5133 3.11366 14.4034 3.15614 14.3008C3.19861 14.1983 3.26087 14.1051 3.33935 14.0266L8.3674 8.99997L3.34076 3.97192C3.18225 3.81341 3.0932 3.59843 3.0932 3.37427C3.0932 3.1501 3.18225 2.93512 3.34076 2.77661C3.49927 2.6181 3.71425 2.52905 3.93842 2.52905C4.16258 2.52905 4.37756 2.6181 4.53607 2.77661L10.1611 8.40161C10.2396 8.48009 10.3019 8.57331 10.3444 8.67592C10.3869 8.77853 10.4087 8.88851 10.4085 8.99956C10.4084 9.11061 10.3864 9.22054 10.3436 9.32305C10.3009 9.42556 10.2384 9.51863 10.1597 9.59692ZM15.7847 8.40161L10.1597 2.77661C10.0812 2.69812 9.98801 2.63587 9.88546 2.59339C9.78291 2.55091 9.67301 2.52905 9.56201 2.52905C9.45102 2.52905 9.34111 2.55091 9.23856 2.59339C9.13602 2.63587 9.04284 2.69812 8.96435 2.77661C8.88587 2.8551 8.82361 2.94827 8.78114 3.05082C8.73866 3.15336 8.7168 3.26327 8.7168 3.37427C8.7168 3.48526 8.73866 3.59517 8.78114 3.69772C8.82361 3.80026 8.88587 3.89344 8.96435 3.97192L13.9924 8.99997L8.96365 14.028C8.80514 14.1865 8.71609 14.4015 8.71609 14.6257C8.71609 14.8498 8.80514 15.0648 8.96365 15.2233C9.12216 15.3818 9.33714 15.4709 9.56131 15.4709C9.78547 15.4709 10.0005 15.3818 10.159 15.2233L15.784 9.59833C15.8627 9.51999 15.9251 9.42688 15.9678 9.32435C16.0104 9.22181 16.0324 9.11187 16.0325 9.00082C16.0325 8.88977 16.0107 8.7798 15.9682 8.67722C15.9256 8.57463 15.8633 8.48145 15.7847 8.40302V8.40161Z" fill="#37474F"/>
</svg>
