<svg width="18" height="18" viewBox="0 0 18 18" fill="none" xmlns="http://www.w3.org/2000/svg">
<path d="M15.875 0.75H2.125C1.76033 0.75 1.41059 0.894866 1.15273 1.15273C0.894866 1.41059 0.75 1.76033 0.75 2.125V15.875C0.75 16.2397 0.894866 16.5894 1.15273 16.8473C1.41059 17.1051 1.76033 17.25 2.125 17.25H15.875C16.2397 17.25 16.5894 17.1051 16.8473 16.8473C17.1051 16.5894 17.25 16.2397 17.25 15.875V2.125C17.25 1.76033 17.1051 1.41059 16.8473 1.15273C16.5894 0.894866 16.2397 0.75 15.875 0.75ZM12.9239 7.42391L8.11141 12.2364C8.04756 12.3003 7.97173 12.351 7.88827 12.3856C7.80481 12.4202 7.71535 12.438 7.625 12.438C7.53465 12.438 7.44519 12.4202 7.36173 12.3856C7.27827 12.351 7.20244 12.3003 7.13859 12.2364L5.07609 10.1739C4.94709 10.0449 4.87462 9.86994 4.87462 9.6875C4.87462 9.50506 4.94709 9.3301 5.07609 9.20109C5.2051 9.07209 5.38006 8.99962 5.5625 8.99962C5.74494 8.99962 5.9199 9.07209 6.04891 9.20109L7.625 10.778L11.9511 6.45109C12.015 6.38722 12.0908 6.33655 12.1743 6.30198C12.2577 6.26741 12.3472 6.24962 12.4375 6.24962C12.5278 6.24962 12.6173 6.26741 12.7007 6.30198C12.7842 6.33655 12.86 6.38722 12.9239 6.45109C12.9878 6.51497 13.0385 6.5908 13.073 6.67426C13.1076 6.75772 13.1254 6.84717 13.1254 6.9375C13.1254 7.02783 13.1076 7.11728 13.073 7.20074C13.0385 7.2842 12.9878 7.36003 12.9239 7.42391Z" fill="#0053A6"/>
</svg>
