<svg width="44" height="44" viewBox="0 0 44 44" fill="none" xmlns="http://www.w3.org/2000/svg">
<rect width="44" height="44" rx="6" fill="url(#paint0_linear_175_362)"/>
<path d="M31.4163 18.3756L22.4163 12.3756C22.293 12.2934 22.1482 12.2495 22 12.2495C21.8518 12.2495 21.707 12.2934 21.5837 12.3756L12.5838 18.3756C12.481 18.4442 12.3968 18.537 12.3386 18.646C12.2803 18.7549 12.2499 18.8765 12.25 19V28.75C12.25 29.1478 12.408 29.5294 12.6893 29.8107C12.9706 30.092 13.3522 30.25 13.75 30.25H30.25C30.6478 30.25 31.0294 30.092 31.3107 29.8107C31.592 29.5294 31.75 29.1478 31.75 28.75V19C31.7501 18.8765 31.7197 18.7549 31.6614 18.646C31.6032 18.537 31.519 18.4442 31.4163 18.3756ZM13.75 28.75V20.4559L19.9281 24.8622C20.0553 24.953 20.2077 25.0019 20.3641 25.0019H23.6359C23.7923 25.0019 23.9447 24.953 24.0719 24.8622L30.25 20.4559V28.75H13.75Z" fill="white"/>
<defs>
<linearGradient id="paint0_linear_175_362" x1="22" y1="0" x2="22" y2="44" gradientUnits="userSpaceOnUse">
<stop stop-color="#447DAD"/>
<stop offset="1" stop-color="#0F3760"/>
</linearGradient>
</defs>
</svg>
