<svg width="20" height="17" viewBox="0 0 20 17" fill="none" xmlns="http://www.w3.org/2000/svg">
<path d="M19.625 5.57812C19.625 11.5938 10.7055 16.463 10.3257 16.6641C10.2256 16.7179 10.1137 16.7461 10 16.7461C9.88632 16.7461 9.77441 16.7179 9.6743 16.6641C9.29445 16.463 0.375 11.5938 0.375 5.57812C0.376592 4.16551 0.938458 2.8112 1.93733 1.81233C2.9362 0.813458 4.29051 0.251592 5.70312 0.25C7.47773 0.25 9.03148 1.01312 10 2.30305C10.9685 1.01312 12.5223 0.25 14.2969 0.25C15.7095 0.251592 17.0638 0.813458 18.0627 1.81233C19.0615 2.8112 19.6234 4.16551 19.625 5.57812Z" fill="#F04437"/>
</svg>
