<svg width="57" height="57" viewBox="0 0 57 57" fill="none" xmlns="http://www.w3.org/2000/svg">
<g filter="url(#filter0_dii_15_639)">
<mask id="mask0_15_639" style="mask-type:alpha" maskUnits="userSpaceOnUse" x="7" y="5" width="44" height="44">
<rect x="7" y="5" width="44" height="44" rx="9.71094" fill="#14272C"/>
</mask>
<g mask="url(#mask0_15_639)">
<rect x="7" y="5" width="44" height="44" rx="9.23822" fill="url(#paint0_linear_15_639)"/>
<g opacity="0.4" filter="url(#filter1_f_15_639)">
<path d="M49.7539 14.9688C49.7539 10.1992 46.8177 8.70964 46.1445 7.96484C46.6315 9.09635 48.0781 12.6055 48.0781 14.9687L48.0781 37.7852C48.0781 40.2258 47.2474 44.4167 46.9609 45.6484C47.4336 44.8893 49.7539 43.457 49.7539 37.7852L49.7539 14.9688Z" fill="white"/>
</g>
<g opacity="0.8" filter="url(#filter2_f_15_639)">
<path d="M16.5391 6.24609C14.2016 6.24609 12.1276 7.59245 11.3828 8.26562C12.5143 7.77865 14.2617 6.80469 16.5391 6.80469H39.3555C41.7961 6.80469 44.8698 7.3776 46.1016 7.66406C45.3424 7.19141 42.9305 6.24609 39.3555 6.24609H16.5391Z" fill="white"/>
</g>
<path d="M25.5661 26.9377C25.5661 24.9896 27.1446 23.4099 29.0921 23.4099C31.0397 23.4099 32.619 24.9896 32.619 26.9377C32.619 28.8859 31.0397 30.4656 29.0921 30.4656C27.1446 30.4656 25.5661 28.8859 25.5661 26.9377ZM23.6596 26.9377C23.6596 29.939 26.0917 32.3719 29.0921 32.3719C32.0926 32.3719 34.5247 29.939 34.5247 26.9377C34.5247 23.9365 32.0926 21.5036 29.0921 21.5036C26.0917 21.5036 23.6596 23.9365 23.6596 26.9377ZM33.4702 21.2882C33.4701 21.5393 33.5445 21.7849 33.6839 21.9938C33.8233 22.2027 34.0215 22.3655 34.2535 22.4617C34.4854 22.5579 34.7407 22.5832 34.9869 22.5343C35.2332 22.4854 35.4595 22.3645 35.6371 22.187C35.8147 22.0095 35.9357 21.7832 35.9848 21.5369C36.0339 21.2906 36.0089 21.0352 35.9129 20.8031C35.8169 20.5711 35.6542 20.3727 35.4455 20.233C35.2368 20.0934 34.9914 20.0188 34.7403 20.0187H34.7398C34.4032 20.0189 34.0804 20.1527 33.8424 20.3907C33.6044 20.6287 33.4705 20.9515 33.4702 21.2882ZM24.818 35.5518C23.7865 35.5049 23.2258 35.333 22.8533 35.1878C22.3593 34.9954 22.0069 34.7663 21.6363 34.3962C21.2658 34.0261 21.0364 33.6739 20.845 33.1798C20.6997 32.8073 20.5279 32.2463 20.481 31.2145C20.4297 30.099 20.4195 29.7639 20.4195 26.9378C20.4195 24.1117 20.4306 23.7776 20.481 22.6611C20.528 21.6293 20.7011 21.0695 20.845 20.6959C21.0373 20.2018 21.2663 19.8492 21.6363 19.4786C22.0064 19.1079 22.3585 18.8785 22.8533 18.687C23.2257 18.5417 23.7865 18.3699 24.818 18.3229C25.9331 18.2716 26.2681 18.2614 29.0921 18.2614C31.9162 18.2614 32.2515 18.2725 33.3676 18.3229C34.3991 18.3699 34.9588 18.5431 35.3323 18.687C35.8263 18.8785 36.1787 19.1084 36.5492 19.4786C36.9198 19.8487 37.1483 20.2018 37.3406 20.6959C37.4858 21.0684 37.6576 21.6293 37.7045 22.6611C37.7558 23.7776 37.7661 24.1117 37.7661 26.9378C37.7661 29.7639 37.7558 30.0981 37.7045 31.2145C37.6576 32.2463 37.4849 32.8071 37.3406 33.1798C37.1483 33.6739 36.9193 34.0264 36.5492 34.3962C36.1792 34.766 35.8263 34.9954 35.3323 35.1878C34.9599 35.3331 34.3991 35.5049 33.3676 35.5518C32.2524 35.6031 31.9174 35.6134 29.0921 35.6134C26.2669 35.6134 25.9328 35.6031 24.818 35.5518ZM24.7304 16.4191C23.6041 16.4704 22.8345 16.649 22.1624 16.9106C21.4663 17.1808 20.8771 17.5432 20.2882 18.1313C19.6994 18.7193 19.338 19.3097 19.0679 20.0059C18.8064 20.6787 18.6278 21.4481 18.5765 22.5747C18.5244 23.7031 18.5125 24.0638 18.5125 26.9377C18.5125 29.8117 18.5244 30.1724 18.5765 31.3008C18.6278 32.4275 18.8064 33.1968 19.0679 33.8695C19.338 34.5654 19.6995 35.1564 20.2882 35.7442C20.877 36.332 21.4663 36.6939 22.1624 36.9649C22.8357 37.2265 23.6041 37.4051 24.7304 37.4564C25.859 37.5077 26.219 37.5205 29.0921 37.5205C31.9653 37.5205 32.3259 37.5085 33.4539 37.4564C34.5803 37.4051 35.3494 37.2265 36.0219 36.9649C36.7176 36.6939 37.3072 36.3323 37.8961 35.7442C38.4849 35.1561 38.8455 34.5654 39.1164 33.8695C39.3779 33.1968 39.5573 32.4274 39.6078 31.3008C39.6591 30.1716 39.671 29.8117 39.671 26.9377C39.671 24.0638 39.6591 23.7031 39.6078 22.5747C39.5565 21.448 39.3779 20.6782 39.1164 20.0059C38.8455 19.3101 38.484 18.7203 37.8961 18.1313C37.3082 17.5423 36.7176 17.1808 36.0228 16.9106C35.3494 16.649 34.5802 16.4695 33.4548 16.4191C32.3267 16.3678 31.9661 16.355 29.093 16.355C26.2199 16.355 25.859 16.3669 24.7304 16.4191Z" fill="white"/>
</g>
</g>
<defs>
<filter id="filter0_dii_15_639" x="0.125" y="0.703125" width="56.0312" height="56.0312" filterUnits="userSpaceOnUse" color-interpolation-filters="sRGB">
<feFlood flood-opacity="0" result="BackgroundImageFix"/>
<feColorMatrix in="SourceAlpha" type="matrix" values="0 0 0 0 0 0 0 0 0 0 0 0 0 0 0 0 0 0 127 0" result="hardAlpha"/>
<feOffset dx="-0.859375" dy="1.71875"/>
<feGaussianBlur stdDeviation="3.00781"/>
<feComposite in2="hardAlpha" operator="out"/>
<feColorMatrix type="matrix" values="0 0 0 0 0.0904167 0 0 0 0 0.105917 0 0 0 0 0.129167 0 0 0 0.4 0"/>
<feBlend mode="normal" in2="BackgroundImageFix" result="effect1_dropShadow_15_639"/>
<feBlend mode="normal" in="SourceGraphic" in2="effect1_dropShadow_15_639" result="shape"/>
<feColorMatrix in="SourceAlpha" type="matrix" values="0 0 0 0 0 0 0 0 0 0 0 0 0 0 0 0 0 0 127 0" result="hardAlpha"/>
<feOffset dx="1.71875" dy="-1.71875"/>
<feGaussianBlur stdDeviation="1.28906"/>
<feComposite in2="hardAlpha" operator="arithmetic" k2="-1" k3="1"/>
<feColorMatrix type="matrix" values="0 0 0 0 0.003125 0 0 0 0 0.0666233 0 0 0 0 0.0833333 0 0 0 0.7 0"/>
<feBlend mode="normal" in2="shape" result="effect2_innerShadow_15_639"/>
<feColorMatrix in="SourceAlpha" type="matrix" values="0 0 0 0 0 0 0 0 0 0 0 0 0 0 0 0 0 0 127 0" result="hardAlpha"/>
<feOffset dx="-0.859375" dy="0.859375"/>
<feGaussianBlur stdDeviation="0.859375"/>
<feComposite in2="hardAlpha" operator="arithmetic" k2="-1" k3="1"/>
<feColorMatrix type="matrix" values="0 0 0 0 0 0 0 0 0 0.0692708 0 0 0 0 0.0875 0 0 0 0.3 0"/>
<feBlend mode="normal" in2="effect2_innerShadow_15_639" result="effect3_innerShadow_15_639"/>
</filter>
<filter id="filter1_f_15_639" x="45.3711" y="7.19141" width="5.15625" height="39.2305" filterUnits="userSpaceOnUse" color-interpolation-filters="sRGB">
<feFlood flood-opacity="0" result="BackgroundImageFix"/>
<feBlend mode="normal" in="SourceGraphic" in2="BackgroundImageFix" result="shape"/>
<feGaussianBlur stdDeviation="0.386719" result="effect1_foregroundBlur_15_639"/>
</filter>
<filter id="filter2_f_15_639" x="10.7812" y="5.64453" width="35.9219" height="3.22266" filterUnits="userSpaceOnUse" color-interpolation-filters="sRGB">
<feFlood flood-opacity="0" result="BackgroundImageFix"/>
<feBlend mode="normal" in="SourceGraphic" in2="BackgroundImageFix" result="shape"/>
<feGaussianBlur stdDeviation="0.300781" result="effect1_foregroundBlur_15_639"/>
</filter>
<linearGradient id="paint0_linear_15_639" x1="50.1543" y1="49" x2="6.15432" y2="5" gradientUnits="userSpaceOnUse">
<stop stop-color="#FBE18A"/>
<stop offset="0.21" stop-color="#FCBB45"/>
<stop offset="0.38" stop-color="#F75274"/>
<stop offset="0.52" stop-color="#D53692"/>
<stop offset="0.74" stop-color="#8F39CE"/>
<stop offset="1" stop-color="#5B4FE9"/>
</linearGradient>
</defs>
</svg>
