<svg width="44" height="44" viewBox="0 0 44 44" fill="none" xmlns="http://www.w3.org/2000/svg">
<rect width="44" height="44" rx="6" fill="url(#paint0_linear_175_357)"/>
<path d="M24.2753 13.5559C24.3008 13.4607 24.3447 13.3715 24.4047 13.2933C24.4647 13.2151 24.5394 13.1495 24.6248 13.1003C24.7101 13.051 24.8043 13.019 24.902 13.0061C24.9996 12.9933 25.0989 12.9998 25.1941 13.0253C26.5844 13.3881 27.853 14.1149 28.869 15.131C29.8851 16.147 30.6119 17.4156 30.9747 18.8059C31.0002 18.9011 31.0067 19.0004 30.9939 19.098C30.981 19.1957 30.949 19.2899 30.8997 19.3752C30.8505 19.4606 30.7849 19.5353 30.7067 19.5953C30.6285 19.6553 30.5393 19.6992 30.4441 19.7247C30.3807 19.7413 30.3155 19.7498 30.25 19.75C30.0849 19.75 29.9243 19.6956 29.7933 19.5951C29.6622 19.4945 29.5681 19.3536 29.5253 19.1941C29.2296 18.0589 28.6365 17.0231 27.8071 16.1935C26.9777 15.364 25.942 14.7706 24.8069 14.4747C24.7116 14.4493 24.6223 14.4054 24.544 14.3455C24.4657 14.2856 24.4 14.2108 24.3506 14.1255C24.3013 14.0402 24.2692 13.946 24.2563 13.8482C24.2433 13.7505 24.2498 13.6512 24.2753 13.5559ZM24.0569 17.4747C25.3497 17.8197 26.1803 18.6512 26.5253 19.9441C26.5681 20.1036 26.6622 20.2445 26.7933 20.3451C26.9243 20.4456 27.0849 20.5 27.25 20.5C27.3155 20.4998 27.3807 20.4913 27.4441 20.4747C27.5393 20.4492 27.6285 20.4053 27.7067 20.3453C27.7849 20.2853 27.8505 20.2106 27.8997 20.1252C27.949 20.0399 27.981 19.9457 27.9939 19.848C28.0067 19.7504 28.0002 19.6511 27.9747 19.5559C27.4947 17.7597 26.2403 16.5053 24.4441 16.0253C24.3489 15.9999 24.2497 15.9935 24.152 16.0064C24.0544 16.0193 23.9602 16.0514 23.8749 16.1007C23.7897 16.15 23.7149 16.2156 23.655 16.2938C23.5951 16.372 23.5512 16.4612 23.5258 16.5564C23.5004 16.6516 23.4939 16.7508 23.5069 16.8485C23.5198 16.9461 23.5518 17.0403 23.6012 17.1255C23.6505 17.2108 23.7161 17.2855 23.7943 17.3454C23.8725 17.4053 23.9617 17.4493 24.0569 17.4747ZM30.8472 24.8556L26.4306 22.8766L26.4184 22.8709C26.1892 22.7729 25.939 22.7335 25.6907 22.7564C25.4424 22.7793 25.2037 22.8638 24.9963 23.0022C24.9718 23.0183 24.9484 23.0358 24.9259 23.0547L22.6441 25C21.1984 24.2978 19.7059 22.8166 19.0038 21.3897L20.9519 19.0731C20.9706 19.0497 20.9884 19.0262 21.0053 19.0009C21.1407 18.794 21.2229 18.5569 21.2445 18.3105C21.2661 18.0642 21.2264 17.8164 21.1291 17.5891V17.5778L19.1444 13.1537C19.0157 12.8568 18.7944 12.6094 18.5136 12.4486C18.2328 12.2877 17.9075 12.222 17.5863 12.2612C16.3159 12.4284 15.1499 13.0523 14.3059 14.0163C13.4619 14.9804 12.9977 16.2187 13 17.5C13 24.9437 19.0563 31 26.5 31C27.7813 31.0023 29.0196 30.5381 29.9837 29.6941C30.9477 28.8501 31.5716 27.6841 31.7388 26.4137C31.7781 26.0926 31.7125 25.7674 31.5518 25.4866C31.3911 25.2058 31.144 24.9845 30.8472 24.8556Z" fill="white"/>
<defs>
<linearGradient id="paint0_linear_175_357" x1="22" y1="0" x2="22" y2="44" gradientUnits="userSpaceOnUse">
<stop stop-color="#447DAD"/>
<stop offset="1" stop-color="#0F3760"/>
</linearGradient>
</defs>
</svg>
