<svg width="78" height="78" viewBox="0 0 78 78" fill="none" xmlns="http://www.w3.org/2000/svg">
<circle cx="39" cy="39" r="31" fill="white" fill-opacity="0.6"/>
<circle cx="39" cy="39" r="39" fill="white" fill-opacity="0.6"/>
<circle cx="39" cy="39" r="23" fill="white"/>
<path d="M49.5 39C49.5006 39.2546 49.4353 39.5051 49.3105 39.727C49.1856 39.949 49.0055 40.1348 48.7875 40.2665L35.28 48.5297C35.0523 48.6691 34.7914 48.7452 34.5244 48.7502C34.2575 48.7551 33.994 48.6887 33.7613 48.5578C33.5307 48.4289 33.3387 48.2409 33.2049 48.0132C33.0711 47.7855 33.0004 47.5263 33 47.2622V30.7378C33.0004 30.4737 33.0711 30.2144 33.2049 29.9867C33.3387 29.759 33.5307 29.5711 33.7613 29.4422C33.994 29.3112 34.2575 29.2448 34.5244 29.2498C34.7914 29.2547 35.0523 29.3308 35.28 29.4703L48.7875 37.7334C49.0055 37.8651 49.1856 38.051 49.3105 38.2729C49.4353 38.4949 49.5006 38.7453 49.5 39Z" fill="black"/>
</svg>
