<svg width="20" height="16" viewBox="0 0 20 16" fill="none" xmlns="http://www.w3.org/2000/svg">
<path d="M19.0459 8.79592L12.2959 15.5459C12.0846 15.7573 11.7979 15.876 11.4991 15.876C11.2002 15.876 10.9135 15.7573 10.7022 15.5459C10.4908 15.3346 10.3721 15.0479 10.3721 14.749C10.3721 14.4502 10.4908 14.1635 10.7022 13.9522L15.5312 9.12498H1.75C1.45163 9.12498 1.16548 9.00645 0.954505 8.79548C0.743526 8.5845 0.625 8.29835 0.625 7.99998C0.625 7.70161 0.743526 7.41546 0.954505 7.20449C1.16548 6.99351 1.45163 6.87498 1.75 6.87498H15.5312L10.7041 2.04498C10.4927 1.83364 10.374 1.54699 10.374 1.24811C10.374 0.94922 10.4927 0.662575 10.7041 0.451231C10.9154 0.239887 11.2021 0.121155 11.5009 0.121155C11.7998 0.121155 12.0865 0.239887 12.2978 0.451231L19.0478 7.20123C19.1527 7.30589 19.2359 7.43024 19.2926 7.56714C19.3493 7.70403 19.3784 7.85079 19.3782 7.99896C19.3781 8.14714 19.3486 8.29383 19.2916 8.43059C19.2346 8.56736 19.1511 8.69151 19.0459 8.79592Z" fill="#343330"/>
</svg>
