<svg width="57" height="57" viewBox="0 0 57 57" fill="none" xmlns="http://www.w3.org/2000/svg">
<g filter="url(#filter0_dii_15_657)">
<mask id="mask0_15_657" style="mask-type:alpha" maskUnits="userSpaceOnUse" x="7" y="5" width="44" height="44">
<rect x="7" y="5" width="44" height="44" rx="9.71094" fill="#14272C"/>
</mask>
<g mask="url(#mask0_15_657)">
<path d="M7 20.5375C7 15.0989 7 12.3795 8.05843 10.3023C8.98945 8.47503 10.475 6.98945 12.3023 6.05843C14.3795 5 17.0989 5 22.5375 5H35.4625C40.9011 5 43.6205 5 45.6977 6.05843C47.525 6.98945 49.0106 8.47503 49.9416 10.3023C51 12.3795 51 15.0989 51 20.5375V33.4625C51 38.9011 51 41.6205 49.9416 43.6977C49.0106 45.525 47.525 47.0106 45.6977 47.9416C43.6205 49 40.9011 49 35.4625 49H22.5375C17.0989 49 14.3795 49 12.3023 47.9416C10.475 47.0106 8.98945 45.525 8.05843 43.6977C7 41.6205 7 38.9011 7 33.4625V20.5375Z" fill="black"/>
<g opacity="0.4" filter="url(#filter1_f_15_657)">
<path d="M49.7539 14.9688C49.7539 10.1992 46.8177 8.70964 46.1445 7.96484C46.6315 9.09635 48.0781 12.6055 48.0781 14.9687L48.0781 37.7852C48.0781 40.2258 47.2474 44.4167 46.9609 45.6484C47.4336 44.8893 49.7539 43.457 49.7539 37.7852L49.7539 14.9688Z" fill="white"/>
</g>
<g opacity="0.8" filter="url(#filter2_f_15_657)">
<path d="M16.5391 6.24609C14.2016 6.24609 12.1276 7.59245 11.3828 8.26562C12.5143 7.77865 14.2617 6.80469 16.5391 6.80469H39.3555C41.7961 6.80469 44.8698 7.3776 46.1016 7.66406C45.3424 7.19141 42.9305 6.24609 39.3555 6.24609H16.5391Z" fill="white"/>
</g>
</g>
<g clip-path="url(#clip0_15_657)">
<path d="M17.3028 14.8549C17.3336 14.8983 17.7475 15.5036 18.2244 16.2017C18.7024 16.8999 19.2174 17.6525 19.3702 17.8753C19.523 18.0981 20.0823 18.9176 20.6146 19.695C21.8454 21.4948 22.5724 22.5581 24.7347 25.7184C25.6957 27.1233 26.4781 28.2783 26.4756 28.2869C26.4719 28.2956 26.4054 28.3748 26.329 28.4639C26.2526 28.5531 25.9754 28.8761 25.7142 29.1819C25.4517 29.4876 25.1277 29.8652 24.9934 30.0224C24.8591 30.1784 24.6139 30.4656 24.4476 30.6599C24.2813 30.8542 24.062 31.1105 23.9597 31.2293C23.8574 31.3481 23.6529 31.5883 23.5038 31.7616C23.3547 31.9349 23.1169 32.2134 22.974 32.3805C22.6167 32.7977 22.3062 33.1604 21.9194 33.6122C21.7383 33.8239 21.392 34.2274 21.1506 34.5096C20.9091 34.7919 20.5628 35.1954 20.3817 35.4071C20.2019 35.6175 19.9517 35.9109 19.8261 36.057C19.7004 36.203 19.2876 36.6845 18.9082 37.1277C18.5299 37.5696 18.1172 38.0524 17.9915 38.1984C17.8658 38.3445 17.6613 38.5847 17.5356 38.7307C17.4112 38.8768 17.2941 39.0117 17.2781 39.0315L17.2461 39.0649L18.2934 39.0637H19.3394L19.7583 38.5735C20.224 38.0276 20.6528 37.5275 21.1062 36.9977C21.2725 36.8034 21.5116 36.5249 21.636 36.3788C21.7617 36.2327 21.9317 36.0347 22.013 35.9394C22.0943 35.844 22.2828 35.6237 22.4319 35.4504C22.581 35.2771 22.8188 34.9986 22.9617 34.8315C23.1046 34.6644 23.3264 34.4057 23.4545 34.2559C23.5827 34.1061 23.8044 33.8474 23.9474 33.6803C24.3158 33.2507 24.6238 32.8905 25.002 32.4486C25.1831 32.2369 25.5269 31.8359 25.7659 31.5561C26.0062 31.2764 26.4165 30.7973 26.6777 30.4915C27.3627 29.6919 27.396 29.6535 27.4095 29.6498C27.4169 29.6473 27.545 29.8256 27.6941 30.0447C28.0588 30.5782 30.5525 34.2237 32.3846 36.9012L33.8644 39.0649H37.3869H40.9082L40.7788 38.8755C40.6383 38.6701 39.1081 36.432 38.821 36.0136C38.7237 35.87 38.1668 35.0568 37.5853 34.2064C36.5848 32.7444 35.5609 31.2466 33.65 28.4528C31.1723 24.8321 31.33 25.066 31.3472 25.0425C31.3633 25.0227 31.5579 24.7937 32.0372 24.2354C32.1616 24.0894 32.4031 23.8071 32.5719 23.6103C32.7407 23.4122 32.9465 23.1733 33.0278 23.078C33.1091 22.9827 33.2976 22.7624 33.4467 22.5891C33.9001 22.058 34.2389 21.6632 34.3954 21.4812C34.4767 21.3859 34.6825 21.1457 34.8513 20.9489C35.5203 20.1666 35.694 19.9636 35.8369 19.7977C35.9182 19.7024 36.1068 19.4821 36.2558 19.3088C36.6452 18.8545 36.9544 18.493 37.1676 18.2442C37.2698 18.1254 37.5064 17.8493 37.6924 17.6315C38.4637 16.7315 38.8272 16.3057 39.8178 15.1483C39.973 14.9676 40.1073 14.8104 40.1172 14.7992C40.1332 14.7794 40.0667 14.7782 39.0921 14.7782H38.0497L37.7072 15.1768C37.52 15.3971 37.2982 15.6546 37.2169 15.7499C37.1343 15.8452 36.9458 16.0656 36.798 16.2389C36.6489 16.4122 36.4443 16.6523 36.3421 16.7712C36.1523 16.9927 35.9281 17.2539 35.3983 17.8728C35.232 18.0672 34.9868 18.3531 34.8525 18.5103C34.7182 18.6663 34.4632 18.9646 34.2857 19.1726C34.1071 19.3806 33.8213 19.7148 33.65 19.9153C33.4775 20.1158 33.2533 20.3783 33.151 20.4971C32.9625 20.7174 32.6212 21.1148 32.2023 21.605C32.0742 21.7548 31.8696 21.9937 31.7464 22.1373C31.4199 22.5185 30.9419 23.0768 30.677 23.3875C30.5488 23.5373 30.4343 23.6697 30.4219 23.6821C30.4022 23.7031 30.3899 23.6883 30.1484 23.3355C30.0092 23.1325 29.4314 22.287 28.8634 21.4564C27.1951 19.0166 24.8456 15.5828 24.5597 15.1644L24.2948 14.7782H20.7723H17.2486L17.3028 14.8549ZM24.0583 17.4532C24.4784 18.056 25.0193 18.8334 25.2608 19.18C25.5023 19.5266 26.0752 20.3498 26.5347 21.0108C26.9943 21.6706 27.5697 22.4987 27.8136 22.849C28.0576 23.1993 28.4937 23.8257 28.7833 24.2416C30.4182 26.5911 30.8421 27.2001 31.1649 27.6643C31.362 27.9465 31.8364 28.6286 32.2208 29.1807C32.6052 29.7315 33.1572 30.5262 33.4492 30.9446C33.7399 31.363 34.2747 32.1317 34.6381 32.6528C35.3675 33.7013 35.7766 34.2893 37.0665 36.1436C37.5471 36.8343 37.966 37.4347 37.9955 37.478L38.0497 37.5548L36.4443 37.5523L34.8402 37.5486L34.2352 36.6808C33.9038 36.2043 33.4344 35.5296 33.1929 35.183C32.9514 34.8364 32.3612 33.9873 31.8795 33.2965C31.399 32.6058 30.7669 31.6972 30.4749 31.2788C30.1842 30.8604 29.6679 30.119 29.3303 29.6325C28.9915 29.146 28.5332 28.4887 28.3126 28.1718C27.1964 26.5663 26.1047 24.9967 25.0008 23.4122C24.2184 22.2883 23.8698 21.7869 22.7054 20.1134C21.6101 18.54 20.7526 17.3084 20.4212 16.833C20.2437 16.578 20.0971 16.3651 20.0971 16.3589C20.0971 16.354 20.8167 16.3515 21.6964 16.3528L23.2944 16.3565L24.0583 17.4532Z" fill="white"/>
</g>
</g>
<defs>
<filter id="filter0_dii_15_657" x="0.125" y="0.703125" width="56.0312" height="56.0312" filterUnits="userSpaceOnUse" color-interpolation-filters="sRGB">
<feFlood flood-opacity="0" result="BackgroundImageFix"/>
<feColorMatrix in="SourceAlpha" type="matrix" values="0 0 0 0 0 0 0 0 0 0 0 0 0 0 0 0 0 0 127 0" result="hardAlpha"/>
<feOffset dx="-0.859375" dy="1.71875"/>
<feGaussianBlur stdDeviation="3.00781"/>
<feComposite in2="hardAlpha" operator="out"/>
<feColorMatrix type="matrix" values="0 0 0 0 0.0904167 0 0 0 0 0.105917 0 0 0 0 0.129167 0 0 0 0.4 0"/>
<feBlend mode="normal" in2="BackgroundImageFix" result="effect1_dropShadow_15_657"/>
<feBlend mode="normal" in="SourceGraphic" in2="effect1_dropShadow_15_657" result="shape"/>
<feColorMatrix in="SourceAlpha" type="matrix" values="0 0 0 0 0 0 0 0 0 0 0 0 0 0 0 0 0 0 127 0" result="hardAlpha"/>
<feOffset dx="1.71875" dy="-1.71875"/>
<feGaussianBlur stdDeviation="1.28906"/>
<feComposite in2="hardAlpha" operator="arithmetic" k2="-1" k3="1"/>
<feColorMatrix type="matrix" values="0 0 0 0 0.003125 0 0 0 0 0.0666233 0 0 0 0 0.0833333 0 0 0 0.7 0"/>
<feBlend mode="normal" in2="shape" result="effect2_innerShadow_15_657"/>
<feColorMatrix in="SourceAlpha" type="matrix" values="0 0 0 0 0 0 0 0 0 0 0 0 0 0 0 0 0 0 127 0" result="hardAlpha"/>
<feOffset dx="-0.859375" dy="0.859375"/>
<feGaussianBlur stdDeviation="0.859375"/>
<feComposite in2="hardAlpha" operator="arithmetic" k2="-1" k3="1"/>
<feColorMatrix type="matrix" values="0 0 0 0 0 0 0 0 0 0.0692708 0 0 0 0 0.0875 0 0 0 0.3 0"/>
<feBlend mode="normal" in2="effect2_innerShadow_15_657" result="effect3_innerShadow_15_657"/>
</filter>
<filter id="filter1_f_15_657" x="45.3711" y="7.19141" width="5.15625" height="39.2305" filterUnits="userSpaceOnUse" color-interpolation-filters="sRGB">
<feFlood flood-opacity="0" result="BackgroundImageFix"/>
<feBlend mode="normal" in="SourceGraphic" in2="BackgroundImageFix" result="shape"/>
<feGaussianBlur stdDeviation="0.386719" result="effect1_foregroundBlur_15_657"/>
</filter>
<filter id="filter2_f_15_657" x="10.7812" y="5.64453" width="35.9219" height="3.22266" filterUnits="userSpaceOnUse" color-interpolation-filters="sRGB">
<feFlood flood-opacity="0" result="BackgroundImageFix"/>
<feBlend mode="normal" in="SourceGraphic" in2="BackgroundImageFix" result="shape"/>
<feGaussianBlur stdDeviation="0.300781" result="effect1_foregroundBlur_15_657"/>
</filter>
<clipPath id="clip0_15_657">
<rect width="23.6559" height="24.2867" fill="white" transform="translate(17.251 14.7778)"/>
</clipPath>
</defs>
</svg>
